<svg width="180" height="50" viewBox="0 0 180 50" fill="none" xmlns="http://www.w3.org/2000/svg">
<rect width="50" height="50" rx="20" fill="#6733FF"/>
<path fill-rule="evenodd" clip-rule="evenodd" d="M35.1871 31.0982C35.4045 30.7276 35.6028 30.3439 35.7807 29.9485C36.9924 27.2555 37.1737 24.207 36.2898 21.3878C35.4059 18.5686 33.519 16.177 30.9911 14.6718C28.4631 13.1666 25.472 12.6536 22.5914 13.2314C19.7108 13.8092 17.1435 15.437 15.3819 17.8025C13.6204 20.1681 12.7885 23.105 13.0459 26.0499L15.2942 25.8509C15.0855 23.4635 15.7599 21.0827 17.188 19.1649C18.616 17.2472 20.6973 15.9276 23.0325 15.4592C25.3677 14.9909 27.7925 15.4067 29.8419 16.6269C31.8913 17.8471 33.4209 19.7859 34.1375 22.0714C34.854 24.3569 34.707 26.8282 33.7247 29.0113C33.7197 29.0225 33.7147 29.0336 33.7096 29.0447C33.5732 28.8921 33.4327 28.7428 33.2881 28.5968C31.3602 26.6512 28.8272 25.4305 26.1125 25.1388C23.3978 24.847 20.6659 25.502 18.3734 26.9942C17.6633 27.4564 17.0087 27.9902 16.4181 28.5845C16.1456 28.8199 15.9289 29.0611 15.7594 29.3038C14.718 30.7959 15.4658 32.3492 16.0615 33.0169C17.4492 34.567 19.2246 35.7468 21.2133 36.4019C24.0049 37.3214 27.0354 37.1713 29.7237 35.9803C31.237 35.31 32.5818 34.3364 33.6845 33.1331C33.9171 33.6621 34.103 34.2124 34.2391 34.7775L36.4575 34.348C36.1932 33.2054 35.7643 32.1108 35.1871 31.0982ZM32.4627 31.0812C31.4971 32.2939 30.2492 33.2656 28.8145 33.9012C26.6351 34.8667 24.1783 34.9884 21.9153 34.2429C20.0821 33.6391 18.4806 32.5007 17.3055 30.9868C17.9493 30.1782 18.722 29.4725 19.599 28.9017C21.4575 27.692 23.6722 27.1611 25.8729 27.3975C28.0737 27.634 30.1271 28.6236 31.69 30.2009C31.9661 30.4796 32.224 30.7737 32.4627 31.0812Z" fill="#D9CCFF"/>
<path fill-rule="evenodd" clip-rule="evenodd" d="M37 34.2429L36.4575 34.348L34.2391 34.7775L33.4857 34.9234L34.425 35.7734L35.7807 37L36.6104 35.1238L37 34.2429Z" fill="#D9CCFF"/>
<path d="M78.732 35.504L76.492 33.278C75.708 33.9127 74.8307 34.4073 73.86 34.762C72.8893 35.1167 71.8627 35.294 70.78 35.294C69.4453 35.294 68.1947 35.0327 67.028 34.51C65.8613 33.978 64.8347 33.25 63.948 32.326C63.0613 31.3927 62.366 30.31 61.862 29.078C61.3673 27.846 61.12 26.53 61.12 25.13C61.12 23.73 61.3673 22.4187 61.862 21.196C62.366 19.964 63.0613 18.8813 63.948 17.948C64.8347 17.0147 65.8613 16.2867 67.028 15.764C68.1947 15.232 69.4453 14.966 70.78 14.966C72.1147 14.966 73.3607 15.232 74.518 15.764C75.6847 16.2867 76.7113 17.0147 77.598 17.948C78.4847 18.8813 79.1753 19.964 79.67 21.196C80.174 22.4187 80.426 23.73 80.426 25.13C80.426 26.2687 80.2533 27.3513 79.908 28.378C79.572 29.3953 79.1053 30.3287 78.508 31.178L80.79 33.446L78.732 35.504ZM70.78 32.382C71.4333 32.382 72.068 32.2747 72.684 32.06C73.3093 31.8453 73.874 31.542 74.378 31.15L72.208 28.994L74.266 26.922L76.338 29.008C76.73 28.448 77.024 27.8367 77.22 27.174C77.416 26.5113 77.514 25.83 77.514 25.13C77.514 24.1313 77.3367 23.198 76.982 22.33C76.6367 21.4527 76.1513 20.6827 75.526 20.02C74.91 19.348 74.196 18.8253 73.384 18.452C72.572 18.0693 71.704 17.878 70.78 17.878C69.8467 17.878 68.974 18.0693 68.162 18.452C67.35 18.8347 66.6313 19.362 66.006 20.034C65.39 20.6967 64.9047 21.4667 64.55 22.344C64.2047 23.212 64.032 24.1407 64.032 25.13C64.032 26.1287 64.2047 27.0667 64.55 27.944C64.9047 28.8213 65.3947 29.596 66.02 30.268C66.6453 30.9307 67.364 31.4487 68.176 31.822C68.988 32.1953 69.856 32.382 70.78 32.382ZM81.1942 29.75V21H84.1062V29.036C84.1062 29.6613 84.2602 30.2307 84.5682 30.744C84.8762 31.2573 85.2869 31.668 85.8002 31.976C86.3136 32.2747 86.8782 32.424 87.4942 32.424C88.1196 32.424 88.6842 32.2747 89.1882 31.976C89.7016 31.668 90.1076 31.2573 90.4062 30.744C90.7142 30.2307 90.8682 29.6613 90.8682 29.036V21H93.7802L93.7942 35H90.8822L90.8682 33.488C90.3922 34.0667 89.7996 34.524 89.0902 34.86C88.3809 35.196 87.6202 35.364 86.8082 35.364C85.7722 35.364 84.8296 35.112 83.9802 34.608C83.1309 34.104 82.4542 33.4273 81.9502 32.578C81.4462 31.7287 81.1942 30.786 81.1942 29.75ZM95.1019 21H98.0139V35H95.1019V21ZM96.5859 18.97C96.1379 18.97 95.7645 18.8253 95.4659 18.536C95.1672 18.2467 95.0179 17.8827 95.0179 17.444C95.0179 17.0147 95.1672 16.6553 95.4659 16.366C95.7645 16.0673 96.1332 15.918 96.5719 15.918C97.0012 15.918 97.3652 16.0673 97.6639 16.366C97.9625 16.6553 98.1119 17.0147 98.1119 17.444C98.1119 17.8827 97.9625 18.2467 97.6639 18.536C97.3745 18.8253 97.0152 18.97 96.5859 18.97ZM108.76 31.024L111.364 32.438C110.729 33.3247 109.922 34.034 108.942 34.566C107.971 35.098 106.916 35.364 105.778 35.364C104.49 35.364 103.314 35.0327 102.25 34.37C101.195 33.7073 100.35 32.8207 99.7155 31.71C99.0902 30.59 98.7775 29.3533 98.7775 28C98.7775 26.9733 98.9595 26.0167 99.3235 25.13C99.6875 24.234 100.187 23.45 100.822 22.778C101.466 22.0967 102.212 21.5647 103.062 21.182C103.911 20.7993 104.816 20.608 105.778 20.608C106.916 20.608 107.971 20.874 108.942 21.406C109.922 21.938 110.729 22.652 111.364 23.548L108.76 24.962C108.368 24.4953 107.91 24.1407 107.388 23.898C106.865 23.646 106.328 23.52 105.778 23.52C105.012 23.52 104.317 23.73 103.692 24.15C103.076 24.5607 102.586 25.1067 102.222 25.788C101.867 26.46 101.69 27.1973 101.69 28C101.69 28.7933 101.872 29.5307 102.236 30.212C102.6 30.884 103.09 31.4253 103.706 31.836C104.331 32.2467 105.022 32.452 105.778 32.452C106.356 32.452 106.907 32.3213 107.43 32.06C107.952 31.7987 108.396 31.4533 108.76 31.024ZM124.005 35H120.645L117.201 29.064L114.947 31.752V35H112.035V14H114.947V27.23L120.155 21H123.963L119.189 26.698L124.005 35ZM134.84 14H137.752V35H134.84V32.942C134.383 33.67 133.785 34.258 133.048 34.706C132.311 35.1447 131.447 35.364 130.458 35.364C129.441 35.364 128.489 35.1727 127.602 34.79C126.715 34.4073 125.931 33.88 125.25 33.208C124.578 32.5267 124.051 31.7427 123.668 30.856C123.285 29.9693 123.094 29.0173 123.094 28C123.094 26.9827 123.285 26.0307 123.668 25.144C124.051 24.248 124.578 23.464 125.25 22.792C125.931 22.1107 126.715 21.5787 127.602 21.196C128.489 20.8133 129.441 20.622 130.458 20.622C131.447 20.622 132.311 20.846 133.048 21.294C133.785 21.7327 134.383 22.3113 134.84 23.03V14ZM130.486 32.55C131.307 32.55 132.026 32.3493 132.642 31.948C133.258 31.5373 133.734 30.9867 134.07 30.296C134.415 29.6053 134.588 28.84 134.588 28C134.588 27.1507 134.415 26.3807 134.07 25.69C133.725 24.9993 133.244 24.4533 132.628 24.052C132.021 23.6413 131.307 23.436 130.486 23.436C129.674 23.436 128.932 23.6413 128.26 24.052C127.597 24.4627 127.065 25.0133 126.664 25.704C126.272 26.3947 126.076 27.16 126.076 28C126.076 28.8493 126.277 29.6193 126.678 30.31C127.089 30.9913 127.625 31.5373 128.288 31.948C128.96 32.3493 129.693 32.55 130.486 32.55ZM139.606 35V21H142.518V22.484C143.003 21.9053 143.6 21.448 144.31 21.112C145.019 20.776 145.784 20.608 146.606 20.608C147.128 20.608 147.646 20.678 148.16 20.818L146.998 23.758C146.634 23.618 146.27 23.548 145.906 23.548C145.29 23.548 144.725 23.702 144.212 24.01C143.698 24.3087 143.288 24.7147 142.98 25.228C142.672 25.7413 142.518 26.3107 142.518 26.936V35H139.606ZM158.513 21H161.425V35H158.499L158.387 32.97C157.977 33.6887 157.421 34.2673 156.721 34.706C156.021 35.1447 155.195 35.364 154.243 35.364C153.217 35.364 152.251 35.1727 151.345 34.79C150.44 34.398 149.642 33.8567 148.951 33.166C148.27 32.4753 147.738 31.682 147.355 30.786C146.973 29.8807 146.781 28.91 146.781 27.874C146.781 26.8753 146.968 25.9373 147.341 25.06C147.715 24.1733 148.233 23.3987 148.895 22.736C149.558 22.0733 150.323 21.5553 151.191 21.182C152.069 20.7993 153.007 20.608 154.005 20.608C155.023 20.608 155.919 20.8413 156.693 21.308C157.477 21.7653 158.126 22.3533 158.639 23.072L158.513 21ZM154.173 32.55C154.995 32.55 155.713 32.3493 156.329 31.948C156.945 31.5373 157.421 30.9867 157.757 30.296C158.103 29.6053 158.275 28.84 158.275 28C158.275 27.1507 158.103 26.3807 157.757 25.69C157.412 24.9993 156.931 24.4533 156.315 24.052C155.709 23.6413 154.995 23.436 154.173 23.436C153.361 23.436 152.619 23.6413 151.947 24.052C151.275 24.4627 150.743 25.0133 150.351 25.704C149.959 26.3947 149.763 27.16 149.763 28C149.763 28.8493 149.964 29.6193 150.365 30.31C150.776 30.9913 151.313 31.5373 151.975 31.948C152.647 32.3493 153.38 32.55 154.173 32.55ZM166.317 17.822V21H170.265V23.912H166.317V35H163.405V23.912H161.739V21H163.405V17.822C163.405 17.0567 163.592 16.3613 163.965 15.736C164.338 15.1013 164.838 14.5973 165.463 14.224C166.098 13.8507 166.802 13.664 167.577 13.664C168.137 13.664 168.683 13.776 169.215 14C169.747 14.224 170.223 14.5693 170.643 15.036L168.557 17.094C168.454 16.926 168.31 16.8 168.123 16.716C167.946 16.6227 167.764 16.576 167.577 16.576C167.232 16.576 166.933 16.6973 166.681 16.94C166.438 17.1827 166.317 17.4767 166.317 17.822ZM178.892 23.912H175.952L175.938 35H173.026L173.04 23.912H170.814V21H173.04L173.026 16.604H175.938L175.952 21H178.892V23.912Z" fill="#16181D"/>
</svg>
