<svg width="592" height="603" viewBox="0 0 592 603" fill="none" xmlns="http://www.w3.org/2000/svg">
<g clip-path="url(#clip0_238_437)">
<rect width="592" height="602.889" fill="white"/>
<path d="M592 0H0V602.889H592V0Z" fill="#F7F5FF"/>
<path d="M541.922 535.064C541.922 544.268 436.085 544.268 305.529 544.268C174.973 544.268 69.1348 544.268 69.1348 535.064C69.1348 525.86 174.973 525.86 305.529 525.86C436.085 525.86 541.922 525.861 541.922 535.064Z" fill="#D9CCFF"/>
<path d="M430.645 68.3025H213.91V383.288H430.645V68.3025Z" fill="white"/>
<path d="M398.779 311.733C366.333 311.576 335.377 311.576 303.293 311.733" stroke="#060305" stroke-width="0.678356" stroke-miterlimit="10" stroke-linecap="round" stroke-linejoin="round"/>
<path d="M421.765 311.733C416.099 311.733 410.435 311.733 404.77 311.733" stroke="#060305" stroke-width="0.678356" stroke-miterlimit="10" stroke-linecap="round" stroke-linejoin="round"/>
<path d="M339.516 303.985C326.709 303.752 315.565 303.752 303.293 303.985" stroke="#060305" stroke-width="0.678356" stroke-miterlimit="10" stroke-linecap="round" stroke-linejoin="round"/>
<path d="M421.764 303.985C396.052 303.752 371.287 303.752 345.66 303.985" stroke="#060305" stroke-width="0.678356" stroke-miterlimit="10" stroke-linecap="round" stroke-linejoin="round"/>
<path d="M313.688 296.237C310.223 296.237 306.759 296.237 303.293 296.237" stroke="#060305" stroke-width="0.678356" stroke-miterlimit="10" stroke-linecap="round" stroke-linejoin="round"/>
<path d="M393.183 296.051C368.371 295.952 343.558 296.02 318.746 296.237" stroke="#060305" stroke-width="0.678356" stroke-miterlimit="10" stroke-linecap="round" stroke-linejoin="round"/>
<path d="M421.765 296.237C414.472 296.172 407.179 296.12 399.887 296.083" stroke="#060305" stroke-width="0.678356" stroke-miterlimit="10" stroke-linecap="round" stroke-linejoin="round"/>
<path d="M258.363 143.989C273.9 143.529 287.982 143.529 303.295 143.989" stroke="#060305" stroke-width="0.678356" stroke-miterlimit="10" stroke-linecap="round" stroke-linejoin="round"/>
<path d="M238.789 143.989C243.087 143.989 247.384 143.989 251.682 143.989" stroke="#060305" stroke-width="0.678356" stroke-miterlimit="10" stroke-linecap="round" stroke-linejoin="round"/>
<path d="M286.967 152.428C292.408 152.428 297.851 152.428 303.294 152.428" stroke="#060305" stroke-width="0.678356" stroke-miterlimit="10" stroke-linecap="round" stroke-linejoin="round"/>
<path d="M238.789 152.428C253.416 152.656 266.218 152.656 280.33 152.428" stroke="#060305" stroke-width="0.678356" stroke-miterlimit="10" stroke-linecap="round" stroke-linejoin="round"/>
<path d="M277.279 160.868C285.951 160.868 294.624 160.868 303.295 160.868" stroke="#060305" stroke-width="0.678356" stroke-miterlimit="10" stroke-linecap="round" stroke-linejoin="round"/>
<path d="M238.789 160.868C249.54 160.868 260.291 160.868 271.041 160.868" stroke="#060305" stroke-width="0.678356" stroke-miterlimit="10" stroke-linecap="round" stroke-linejoin="round"/>
<path d="M263.055 169.306C272.296 169.306 281.536 169.306 290.776 169.306" stroke="#060305" stroke-width="0.678356" stroke-miterlimit="10" stroke-linecap="round" stroke-linejoin="round"/>
<path d="M238.789 169.306C244.231 169.306 249.674 169.306 255.116 169.306" stroke="#060305" stroke-width="0.678356" stroke-miterlimit="10" stroke-linecap="round" stroke-linejoin="round"/>
<path d="M262.186 177.745C275.889 177.745 289.592 177.745 303.295 177.745" stroke="#060305" stroke-width="0.678356" stroke-miterlimit="10" stroke-linecap="round" stroke-linejoin="round"/>
<path d="M238.789 177.745C243.459 177.745 248.128 177.745 252.797 177.745" stroke="#060305" stroke-width="0.678356" stroke-miterlimit="10" stroke-linecap="round" stroke-linejoin="round"/>
<path d="M295.154 186.184C297.868 186.184 300.582 186.184 303.295 186.184" stroke="#060305" stroke-width="0.678356" stroke-miterlimit="10" stroke-linecap="round" stroke-linejoin="round"/>
<path d="M238.789 186.184C254.696 186.556 268.779 186.556 284.135 186.184" stroke="#060305" stroke-width="0.678356" stroke-miterlimit="10" stroke-linecap="round" stroke-linejoin="round"/>
<path d="M270.146 194.622C281.196 194.622 292.246 194.622 303.295 194.622" stroke="#060305" stroke-width="0.678356" stroke-miterlimit="10" stroke-linecap="round" stroke-linejoin="round"/>
<path d="M238.789 194.622C247.168 194.622 255.547 194.622 263.927 194.622" stroke="#060305" stroke-width="0.678356" stroke-miterlimit="10" stroke-linecap="round" stroke-linejoin="round"/>
<path d="M355.652 143.989C373.758 143.529 390.402 143.529 408.12 143.989" stroke="#060305" stroke-width="0.678356" stroke-miterlimit="10" stroke-linecap="round" stroke-linejoin="round"/>
<path d="M320.979 143.989C329.96 143.989 338.941 143.989 347.923 143.989" stroke="#060305" stroke-width="0.678356" stroke-miterlimit="10" stroke-linecap="round" stroke-linejoin="round"/>
<path d="M337.375 152.428C360.957 152.656 385.281 152.656 408.12 152.428" stroke="#060305" stroke-width="0.678356" stroke-miterlimit="10" stroke-linecap="round" stroke-linejoin="round"/>
<path d="M320.979 152.428C324.154 152.428 327.33 152.428 330.504 152.428" stroke="#060305" stroke-width="0.678356" stroke-miterlimit="10" stroke-linecap="round" stroke-linejoin="round"/>
<path d="M320.979 160.868C330.945 160.868 340.914 160.868 350.88 160.868" stroke="#060305" stroke-width="0.678356" stroke-miterlimit="10" stroke-linecap="round" stroke-linejoin="round"/>
<path d="M320.979 169.306H408.119" stroke="#060305" stroke-width="0.678356" stroke-miterlimit="10" stroke-linecap="round" stroke-linejoin="round"/>
<path d="M253.535 126.595L238.896 101.634L244.393 98.2913L253.255 113.402L266.505 88.4124L272.137 91.51L253.535 126.595Z" fill="#16181D"/>
<path d="M309.486 95.1311C343.033 95.2891 375.038 95.2891 408.211 95.1311" stroke="#060305" stroke-width="0.678356" stroke-miterlimit="10" stroke-linecap="round" stroke-linejoin="round"/>
<path d="M285.723 95.1311C291.58 95.1311 297.437 95.1311 303.294 95.1311" stroke="#060305" stroke-width="0.678356" stroke-miterlimit="10" stroke-linecap="round" stroke-linejoin="round"/>
<path d="M370.76 102.879C384.002 103.112 395.523 103.112 408.212 102.879" stroke="#060305" stroke-width="0.678356" stroke-miterlimit="10" stroke-linecap="round" stroke-linejoin="round"/>
<path d="M285.723 102.879C312.307 103.112 337.911 103.112 364.408 102.879" stroke="#060305" stroke-width="0.678356" stroke-miterlimit="10" stroke-linecap="round" stroke-linejoin="round"/>
<path d="M397.463 110.628C401.046 110.628 404.628 110.628 408.211 110.628" stroke="#060305" stroke-width="0.678356" stroke-miterlimit="10" stroke-linecap="round" stroke-linejoin="round"/>
<path d="M315.273 110.813C340.927 110.912 366.581 110.845 392.233 110.628" stroke="#060305" stroke-width="0.678356" stroke-miterlimit="10" stroke-linecap="round" stroke-linejoin="round"/>
<path d="M285.723 110.628C293.262 110.693 300.802 110.745 308.342 110.782" stroke="#060305" stroke-width="0.678356" stroke-miterlimit="10" stroke-linecap="round" stroke-linejoin="round"/>
<path d="M283.266 344.567C286.566 336.453 282.782 327.15 274.814 323.789C266.846 320.428 257.712 324.281 254.411 332.395C251.111 340.508 254.895 349.811 262.863 353.172C270.831 356.534 279.966 352.681 283.266 344.567Z" stroke="#060305" stroke-width="0.678356" stroke-miterlimit="10" stroke-linecap="round" stroke-linejoin="round"/>
<path d="M283.272 353.195C291.252 345.068 291.252 331.892 283.272 323.765C275.292 315.638 262.353 315.638 254.373 323.765C246.393 331.892 246.393 345.068 254.373 353.195C262.353 361.322 275.292 361.322 283.272 353.195Z" stroke="#060305" stroke-width="0.678356" stroke-miterlimit="10" stroke-linecap="round" stroke-linejoin="round"/>
<path d="M311.502 332.299C305.204 338.865 301.896 348.291 302.68 357.435C308.679 352.547 313.761 346.495 317.57 339.699C318.076 338.796 318.502 337.508 317.714 336.846C316.805 336.082 315.519 337.102 314.784 338.041C313.561 339.605 312.295 341.263 311.985 343.237C311.676 345.211 312.717 347.556 314.647 347.925C315.625 348.112 316.631 347.768 317.5 347.275C319.822 345.959 321.487 343.507 321.876 340.83C320.835 341.792 319.764 342.799 319.219 344.119C318.675 345.44 318.814 347.168 319.921 348.049C321.098 348.985 322.904 348.595 324.023 347.588C325.142 346.582 325.738 345.12 326.3 343.711C325.164 345.15 325.479 347.538 326.948 348.62C328.418 349.703 330.743 349.262 331.731 347.714" stroke="#060305" stroke-width="0.678356" stroke-miterlimit="10" stroke-linecap="round" stroke-linejoin="round"/>
<path d="M346.836 169.433C340.024 172.236 332.962 174.329 326.485 177.861C322.869 179.832 320.204 183.461 318.826 187.395C301.057 194.92 283.135 202.832 265.366 210.357C259.67 204.347 253.974 198.337 248.276 192.326C235.385 195.384 222.782 199.546 210.749 205.163C210.515 208.845 210.063 212.486 209.828 216.168C218.858 223.906 227.844 231.791 236.874 239.53C243.084 244.851 250.679 248.819 258.739 249.782C266.8 250.744 275.148 249.021 282.205 244.937C296.277 236.793 312.738 233.973 326.559 225.393L345.715 176.166C347.313 174.36 347.923 171.599 346.836 169.433Z" fill="#FFD1C7"/>
<path d="M265.344 210.247C264.825 211.053 264.306 211.86 263.787 212.667" stroke="#060305" stroke-width="0.678356" stroke-miterlimit="10" stroke-linecap="round" stroke-linejoin="round"/>
<path d="M319.136 187.474C319.089 188.394 319.041 189.315 318.994 190.235" stroke="#060305" stroke-width="0.678356" stroke-miterlimit="10" stroke-linecap="round" stroke-linejoin="round"/>
<path d="M415.136 160.951C409.072 159.349 403.286 157.396 397.22 155.796C396.295 158.867 393.488 161.258 390.356 161.642C387.225 162.025 384.09 160.022 382.476 157.261C377.615 159.095 372.756 160.928 367.896 162.762C362.394 198.642 357.274 233.929 351.773 269.809L417.218 271.376C416.648 234.562 415.707 197.764 415.136 160.951Z" fill="white"/>
<path d="M376.1 160.519C379.268 165.537 385.199 168.607 391.046 168.257C396.895 167.906 402.431 164.147 404.998 158.784" stroke="#060305" stroke-width="0.678356" stroke-miterlimit="10" stroke-linecap="round" stroke-linejoin="round"/>
<path d="M376.326 175.729C377.38 176.343 378.434 176.958 379.487 177.572" stroke="#D8DBFF" stroke-width="0.678356" stroke-miterlimit="10" stroke-linecap="round" stroke-linejoin="round"/>
<path d="M394.166 178.502C394.016 179.499 393.866 180.496 393.715 181.493" stroke="#D8DBFF" stroke-width="0.678356" stroke-miterlimit="10" stroke-linecap="round" stroke-linejoin="round"/>
<path d="M381.064 190.696C380.311 191.386 379.558 192.077 378.805 192.766" stroke="#D8DBFF" stroke-width="0.678356" stroke-miterlimit="10" stroke-linecap="round" stroke-linejoin="round"/>
<path d="M374.285 209.793C374.964 210.867 375.641 211.94 376.318 213.014" stroke="#D8DBFF" stroke-width="0.678356" stroke-miterlimit="10" stroke-linecap="round" stroke-linejoin="round"/>
<path d="M393.039 206.802C394.545 206.265 396.051 205.728 397.557 205.191" stroke="#D8DBFF" stroke-width="0.678356" stroke-miterlimit="10" stroke-linecap="round" stroke-linejoin="round"/>
<path d="M394.168 221.987C394.469 223.137 394.771 224.288 395.071 225.438" stroke="#D8DBFF" stroke-width="0.678356" stroke-miterlimit="10" stroke-linecap="round" stroke-linejoin="round"/>
<path d="M401.178 190.04C402.234 189.822 403.291 189.603 404.347 189.385" stroke="#D8DBFF" stroke-width="0.678356" stroke-miterlimit="10" stroke-linecap="round" stroke-linejoin="round"/>
<path d="M404.785 168.378C405.689 168.762 406.593 169.145 407.497 169.528" stroke="#D8DBFF" stroke-width="0.678356" stroke-miterlimit="10" stroke-linecap="round" stroke-linejoin="round"/>
<path d="M378.805 225.899C379.858 225.515 380.913 225.132 381.967 224.748" stroke="#D8DBFF" stroke-width="0.678356" stroke-miterlimit="10" stroke-linecap="round" stroke-linejoin="round"/>
<path d="M365.701 233.952C365.927 235.256 366.153 236.56 366.38 237.864" stroke="#D8DBFF" stroke-width="0.678356" stroke-miterlimit="10" stroke-linecap="round" stroke-linejoin="round"/>
<path d="M368.186 198.519C369.24 198.519 370.294 198.519 371.348 198.519" stroke="#D8DBFF" stroke-width="0.678356" stroke-miterlimit="10" stroke-linecap="round" stroke-linejoin="round"/>
<path d="M403.656 228.89C403.053 229.58 402.45 230.271 401.848 230.96" stroke="#D8DBFF" stroke-width="0.678356" stroke-miterlimit="10" stroke-linecap="round" stroke-linejoin="round"/>
<path d="M399.365 247.527C400.269 248.14 401.173 248.754 402.077 249.368" stroke="#D8DBFF" stroke-width="0.678356" stroke-miterlimit="10" stroke-linecap="round" stroke-linejoin="round"/>
<path d="M385.57 240.853C385.419 242.156 385.268 243.461 385.117 244.764" stroke="#D8DBFF" stroke-width="0.678356" stroke-miterlimit="10" stroke-linecap="round" stroke-linejoin="round"/>
<path d="M368.639 255.119C369.166 256.117 369.694 257.114 370.22 258.111" stroke="#D8DBFF" stroke-width="0.678356" stroke-miterlimit="10" stroke-linecap="round" stroke-linejoin="round"/>
<path d="M398.912 263.632C399.816 263.172 400.719 262.712 401.623 262.252" stroke="#D8DBFF" stroke-width="0.678356" stroke-miterlimit="10" stroke-linecap="round" stroke-linejoin="round"/>
<path d="M386.974 255.351C386.904 256.425 386.835 257.5 386.766 258.573" stroke="#D8DBFF" stroke-width="0.678356" stroke-miterlimit="10" stroke-linecap="round" stroke-linejoin="round"/>
<path d="M360.957 260.41C361.56 261.177 362.162 261.944 362.764 262.711" stroke="#D8DBFF" stroke-width="0.678356" stroke-miterlimit="10" stroke-linecap="round" stroke-linejoin="round"/>
<path d="M387.922 192.934C388.893 192.458 389.864 191.98 390.836 191.504" stroke="#D8DBFF" stroke-width="0.678356" stroke-miterlimit="10" stroke-linecap="round" stroke-linejoin="round"/>
<path d="M373.361 165.93C374.264 166.168 375.165 166.407 376.067 166.644" stroke="#D8DBFF" stroke-width="0.678356" stroke-miterlimit="10" stroke-linecap="round" stroke-linejoin="round"/>
<path d="M483.371 481.597C466.114 486.001 448.93 490.921 431.673 495.324C434.845 505.321 432.912 516.846 426.661 525.203C424.982 527.448 422.727 530.007 422.592 532.825L452.419 532.925C465.096 529.1 478.394 524.841 491.071 521.016C488.821 507.672 485.62 494.944 483.371 481.597Z" fill="#060305"/>
<path d="M440.246 503.539C444.97 502.749 449.693 501.959 454.417 501.168" stroke="white" stroke-width="0.678356" stroke-miterlimit="10" stroke-linecap="round" stroke-linejoin="round"/>
<path d="M440.285 508.74C445.1 508.095 449.917 507.451 454.732 506.806" stroke="white" stroke-width="0.678356" stroke-miterlimit="10" stroke-linecap="round" stroke-linejoin="round"/>
<path d="M440.877 513.849C445.196 513.143 449.515 512.435 453.835 511.728" stroke="white" stroke-width="0.678356" stroke-miterlimit="10" stroke-linecap="round" stroke-linejoin="round"/>
<path d="M486.473 508.059C482.708 511.235 480.742 516.485 481.476 521.408" stroke="white" stroke-width="0.678356" stroke-miterlimit="10" stroke-linecap="round" stroke-linejoin="round"/>
<path d="M361.463 495.037C363.02 500.864 362.638 507.212 360.394 512.802C358.151 518.393 354.057 523.194 348.937 526.242C346.057 527.957 343.207 529.669 341.885 532.787L416.476 533.287C416.963 520.25 417.857 507.286 418.345 494.25C399.52 494.577 380.29 494.709 361.463 495.037Z" fill="#060305"/>
<path d="M364.346 505.499C367.66 505.397 370.973 505.296 374.287 505.193" stroke="white" stroke-width="0.678356" stroke-miterlimit="10" stroke-linecap="round" stroke-linejoin="round"/>
<path d="M362.838 510.238C366.654 510.208 370.469 510.177 374.285 510.146" stroke="white" stroke-width="0.678356" stroke-miterlimit="10" stroke-linecap="round" stroke-linejoin="round"/>
<path d="M361.031 515.879C364.245 515.879 367.458 515.879 370.671 515.879" stroke="white" stroke-width="0.678356" stroke-miterlimit="10" stroke-linecap="round" stroke-linejoin="round"/>
<path d="M398.908 531.471C402.298 526.262 408.529 523.113 414.654 523.519" stroke="white" stroke-width="0.678356" stroke-miterlimit="10" stroke-linecap="round" stroke-linejoin="round"/>
<path d="M487.262 486.188L463.509 371.424C458.749 338.62 454.992 305.84 450.233 273.035C416.483 270.532 381.464 268.421 347.715 265.917C346.762 275.124 345.809 284.33 344.855 293.536C337.892 360.789 351.272 429.797 356.491 497.215C377.375 497.455 398.286 497.57 419.169 497.81C418.95 485.129 418.877 471.492 418.658 458.811C421.424 471.603 424.354 484.345 427.12 497.139C447.068 493.272 467.315 490.056 487.262 486.188Z" fill="#2A2A59"/>
<path d="M385.359 313.424C396.676 363.231 407.992 413.038 419.308 462.845" stroke="#060305" stroke-width="0.678356" stroke-miterlimit="10" stroke-linecap="round" stroke-linejoin="round"/>
<path d="M353.502 273.525C372.072 274.306 390.64 275.087 409.21 275.869" stroke="#060305" stroke-width="0.678356" stroke-miterlimit="10" stroke-linecap="round" stroke-linejoin="round"/>
<path d="M383.076 280.126C387.626 280.126 391.314 276.37 391.314 271.736C391.314 267.103 387.626 263.347 383.076 263.347C378.526 263.347 374.838 267.103 374.838 271.736C374.838 276.37 378.526 280.126 383.076 280.126Z" stroke="#060305" stroke-width="0.678356" stroke-miterlimit="10" stroke-linecap="round" stroke-linejoin="round"/>
<path d="M356.52 481.937C376.806 482.661 397.093 483.385 417.378 484.109" stroke="#060305" stroke-width="0.678356" stroke-miterlimit="10" stroke-linecap="round" stroke-linejoin="round"/>
<path d="M425.836 483.278C445.091 479.869 464.348 476.461 483.603 473.052" stroke="#060305" stroke-width="0.678356" stroke-miterlimit="10" stroke-linecap="round" stroke-linejoin="round"/>
<path d="M407.238 483.974C407.149 460.353 407.059 436.733 406.971 413.112" stroke="#060305" stroke-width="0.678356" stroke-miterlimit="10" stroke-linecap="round" stroke-linejoin="round"/>
<path d="M475.562 474.448C473.36 466.061 471.159 457.674 468.957 449.287C455.965 399.799 447.281 349.357 445.582 298.16" stroke="#060305" stroke-width="0.678356" stroke-miterlimit="10" stroke-linecap="round" stroke-linejoin="round"/>
<path d="M280.075 240.912C280.075 240.912 267.59 245.971 263.395 248.114C261.363 246.6 258.871 245.496 256.356 245.612C252.213 245.802 247.692 246.14 243.549 246.331C244.307 252.21 245.456 257.989 246.214 263.869L271.169 282.691L290.241 275.482L280.075 240.912Z" fill="#FF9A7D"/>
<path d="M263.279 248.066C264.39 249.39 265.499 250.715 266.61 252.039" stroke="#060305" stroke-width="0.678356" stroke-miterlimit="10" stroke-linecap="round" stroke-linejoin="round"/>
<path d="M266.115 244.584L279.399 281.134L293.585 277.371L282.673 237.409L266.115 244.584Z" fill="white"/>
<path d="M429.927 374.148C429.857 398.69 429.787 423.233 429.717 447.775" stroke="#060305" stroke-width="0.678356" stroke-miterlimit="10" stroke-linecap="round" stroke-linejoin="round"/>
<path d="M524.406 373.226C524.579 398.074 524.75 422.924 524.923 447.773" stroke="#060305" stroke-width="0.678356" stroke-miterlimit="10" stroke-linecap="round" stroke-linejoin="round"/>
<path d="M454.982 326.639C456.305 337.008 457.628 347.375 458.951 357.743C459.209 359.769 460.597 361.931 462.491 362.603C464.386 363.274 466.655 362.645 467.953 361.088C468.923 362.586 470.545 363.693 472.304 363.63C474.065 363.566 475.76 362.516 476.624 360.952C477.465 362.635 479.362 363.839 481.216 363.771C483.069 363.704 484.835 362.466 485.557 360.727C486.798 361.455 488.533 361.223 489.783 360.509C491.033 359.796 491.869 358.385 491.905 356.927C492.16 346.993 492.45 336.836 492.782 326.903L454.982 326.639Z" fill="#FF9A7D"/>
<path d="M467.369 358.503C467.57 359.423 467.771 360.343 467.972 361.264" stroke="#060305" stroke-width="0.678356" stroke-miterlimit="10" stroke-linecap="round" stroke-linejoin="round"/>
<path d="M476.404 358.809C476.404 359.832 476.404 360.854 476.404 361.877" stroke="#060305" stroke-width="0.678356" stroke-miterlimit="10" stroke-linecap="round" stroke-linejoin="round"/>
<path d="M485.798 357.895C485.695 358.918 485.593 359.94 485.49 360.963" stroke="#060305" stroke-width="0.678356" stroke-miterlimit="10" stroke-linecap="round" stroke-linejoin="round"/>
<path d="M372.038 158.525C364.368 160.863 356.888 163.049 349.216 165.388C349.067 166.846 348.942 168.148 348.793 169.606C343.009 172.497 338.015 177.43 335.301 183.382C328.842 197.544 322.27 211.434 315.811 225.595C301.629 229.417 287.448 233.238 273.268 237.061C278.395 253.778 283.354 269.822 288.483 286.539C301.7 281.737 314.708 276.584 327.925 271.782C333.257 269.845 338.433 266.287 342.011 261.819C340.54 273.394 339.389 284.7 337.919 296.275L353.723 299.808L372.038 158.525Z" fill="#814EFF"/>
<path d="M294.9 232.16C297.674 241.585 299.678 251.106 302.453 260.53C296.19 262.417 289.928 264.305 283.666 266.192" stroke="#060305" stroke-width="0.678356" stroke-miterlimit="10" stroke-linecap="round" stroke-linejoin="round"/>
<path d="M315.559 225.896C316.412 225.743 317.266 225.59 318.12 225.437" stroke="#060305" stroke-width="0.678356" stroke-miterlimit="10" stroke-linecap="round" stroke-linejoin="round"/>
<path d="M348.915 169.693C348.577 177.568 348.24 185.441 347.902 193.316C351.969 193.377 355.911 193.392 359.977 193.452C356.189 195.922 352.769 198.195 348.981 200.665C351.812 220.61 354.629 240.691 357.46 260.636" stroke="#060305" stroke-width="0.678356" stroke-miterlimit="10" stroke-linecap="round" stroke-linejoin="round"/>
<path d="M341.4 264.075C343.758 241.243 346.114 218.413 348.471 195.582" stroke="#060305" stroke-width="0.678356" stroke-miterlimit="10" stroke-linecap="round" stroke-linejoin="round"/>
<path d="M487.847 229.356C479.721 215.393 472.732 200.329 463.197 187.324C455.679 177.068 446.91 171.377 432.425 166.9L433 163.839L410.612 156.558L404.471 301.206L449.488 300.75L450.065 328.459L494.099 329.62L496.142 265.468C496.438 253.117 494.033 239.985 487.847 229.356Z" fill="#814EFF"/>
<path d="M432.677 166.067C430.534 174.98 428.392 183.893 426.249 192.806C422.027 193.02 417.054 193.315 412.832 193.528C416.572 195.839 420.073 198.913 423.813 201.224C418.387 222.029 412.77 242.801 407.344 263.607" stroke="#060305" stroke-width="0.678356" stroke-miterlimit="10" stroke-linecap="round" stroke-linejoin="round"/>
<path d="M449.392 300.214C449.296 284.568 449.199 268.923 449.103 253.278C443.742 237.409 436.471 218.3 430.447 200.574C428.342 194.377 428.768 187.533 432.849 182.462C436.93 177.39 443.897 174.921 450.189 176.316" stroke="#060305" stroke-width="0.678356" stroke-miterlimit="10" stroke-linecap="round" stroke-linejoin="round"/>
<path d="M450.498 308.21C461.149 308.779 471.801 309.347 482.452 309.916C482.265 316.256 481.869 321.797 481.682 328.138" stroke="#060305" stroke-width="0.678356" stroke-miterlimit="10" stroke-linecap="round" stroke-linejoin="round"/>
<path d="M448.672 272.531L421.294 257.315L420.719 266.192L449.285 282.691" stroke="#060305" stroke-width="0.678356" stroke-miterlimit="10" stroke-linecap="round" stroke-linejoin="round"/>
<path d="M391.683 117.185C391.456 118.105 391.294 119.164 391.068 120.084C385.018 118.155 378.48 118.234 372.139 118.23C369.892 118.229 367.652 119.055 365.926 120.52" stroke="#060305" stroke-width="0.678356" stroke-miterlimit="10" stroke-linecap="round" stroke-linejoin="round"/>
<path d="M399.62 129.077C399.233 126.642 398.791 124.082 397.255 122.173C396.028 120.648 394.21 119.708 392.335 119.214C390.459 118.72 388.354 118.447 386.421 118.569C382.536 118.814 378.651 119.058 374.767 119.303C373.012 119.414 371.226 119.531 369.587 120.174C367.947 120.816 366.445 122.08 365.948 123.797C365.551 125.169 365.866 126.732 366.76 127.835C367.654 128.937 369.208 129.726 370.605 129.589C369.968 130.021 369.478 130.676 369.24 131.418C368.804 132.775 369.274 134.374 370.347 135.293C371.421 136.212 373.025 136.412 374.3 135.819C375.52 138.271 376.419 140.653 377.2 143.284L401.71 142.221C401.013 137.84 400.317 133.458 399.62 129.077Z" fill="#060305"/>
<path d="M399.87 157.413C399.549 154.342 399.159 151.387 398.839 148.315C401.331 148.137 403.666 146.472 404.684 144.147C405.701 141.824 405.356 138.941 403.822 136.934C402.286 134.926 399.627 133.881 397.166 134.316C396.506 135.821 395.873 137.264 395.213 138.769C394.579 138.373 394.08 137.794 393.802 137.091C392.93 134.889 392.06 132.687 391.189 130.486C386.043 130.612 380.716 130.935 375.569 131.061C373.756 132.731 372.448 134.785 372.041 137.242C371.639 139.663 371.872 142.145 371.803 144.599C371.729 147.253 372.871 150.041 374.627 152.004C376.383 153.967 378.861 155.245 381.454 155.525C381.533 156.623 381.579 157.692 381.659 158.791C383.795 161.766 387.534 163.456 391.143 163.197C394.751 162.938 398.166 160.664 399.87 157.413Z" fill="#FF9A7D"/>
<path d="M387.85 144.623L384.164 145.139C384.149 145.876 384.592 146.603 385.247 146.917C385.901 147.23 386.733 147.113 387.281 146.632C387.828 146.15 388.061 145.329 387.85 144.623Z" fill="white"/>
<path d="M389.685 141.067C389.685 140.491 389.227 140.024 388.661 140.024C388.095 140.024 387.637 140.491 387.637 141.067C387.637 141.644 388.095 142.11 388.661 142.11C389.226 142.11 389.685 141.644 389.685 141.067Z" fill="#060305"/>
<path d="M376.855 141.154C376.855 140.578 376.397 140.111 375.831 140.111C375.265 140.111 374.807 140.578 374.807 141.154C374.807 141.731 375.265 142.197 375.831 142.197C376.397 142.197 376.855 141.731 376.855 141.154Z" fill="#060305"/>
<path d="M381.052 140.905C380.789 142.201 380.527 143.497 380.264 144.793C380.791 144.713 381.332 144.789 381.859 144.708" stroke="#060305" stroke-width="0.678356" stroke-miterlimit="10" stroke-linecap="round" stroke-linejoin="round"/>
<path d="M380.984 155.596C383.987 156.393 387.245 156.155 390.106 154.929" stroke="#060305" stroke-width="0.678356" stroke-miterlimit="10" stroke-linecap="round" stroke-linejoin="round"/>
<path d="M398.014 140.43C399.071 139.551 400.128 138.673 401.186 137.794" stroke="#060305" stroke-width="0.678356" stroke-miterlimit="10" stroke-linecap="round" stroke-linejoin="round"/>
<path d="M385.381 134.918C386.232 133.674 388.195 133.437 389.308 134.445" stroke="#060305" stroke-width="0.678356" stroke-miterlimit="10" stroke-linecap="round" stroke-linejoin="round"/>
<path d="M374.176 135.898C375.155 135.974 376.134 136.049 377.113 136.125" stroke="#060305" stroke-width="0.678356" stroke-miterlimit="10" stroke-linecap="round" stroke-linejoin="round"/>
<path d="M143.912 165.964C143.838 164.174 144.783 162.464 146.058 161.229C147.334 159.995 148.922 159.157 150.486 158.335C155.426 155.743 160.365 153.152 165.305 150.559" stroke="#16181D" stroke-width="0.678356" stroke-miterlimit="10" stroke-linecap="round" stroke-linejoin="round"/>
<path d="M195.051 125.6C188.207 120.863 178.346 121.252 171.881 126.512C165.417 131.773 163.42 141.733 166.448 149.575C161.675 152.537 156.902 155.499 152.13 158.461C149.989 159.789 147.777 161.185 146.396 163.315C145.013 165.445 144.712 168.533 146.391 170.429L183.904 177.047C183.853 168.712 184.082 160.703 184.031 152.369C187.304 149.979 190.797 147.381 194.071 144.991C194.219 141.307 194.554 137.302 194.702 133.618C196.06 132.767 196.971 131.216 197.068 129.596C197.163 127.974 196.371 126.514 195.051 125.6Z" fill="#16181D"/>
<path d="M161.84 150.662L163.985 144.949L177.09 149.737L176.223 153.845L161.84 150.662Z" fill="white"/>
<path d="M252.351 192.777C245.766 186.137 239.591 178.912 232.684 172.62C227.186 167.611 220.822 163.441 213.547 162.19C205.482 160.804 197.798 159.483 189.734 158.095C188 160.732 184.739 162.238 181.649 161.829C178.559 161.419 175.578 159.181 174.565 156.179C165.994 159.876 157.423 163.573 148.852 167.269C142.794 169.882 137.486 174.259 134.313 180.127C131.139 185.996 130.033 192.997 131.237 199.584C135.194 221.218 135.84 243.297 139.262 265.025L224.562 263.401C224.495 249.034 224.636 234.812 224.567 220.445C227.27 218.607 229.122 215.524 229.496 212.236C229.87 208.948 228.9 205.237 226.683 202.817C234.953 199.51 244.08 196.086 252.351 192.777Z" fill="#9E97FF"/>
<path d="M162.854 162.097C167.861 168.234 172.868 174.37 177.874 180.507C180.058 175.885 182.354 171.519 184.538 166.899C188.505 170.611 192.451 174.055 196.416 177.768C196.985 171.939 197.827 166.268 198.396 160.441" stroke="#060305" stroke-width="0.678356" stroke-miterlimit="10" stroke-linecap="round" stroke-linejoin="round"/>
<path d="M211.398 162.641C212.038 167.45 213.57 172.139 215.397 176.621C218.913 185.249 222.431 193.878 225.947 202.505" stroke="#060305" stroke-width="0.678356" stroke-miterlimit="10" stroke-linecap="round" stroke-linejoin="round"/>
<path d="M144.309 171.04C148.959 168.287 155.212 168.658 159.517 171.943C162.327 174.087 164.219 177.219 166.043 180.273C171.395 189.237 176.747 198.201 182.098 207.166" stroke="#060305" stroke-width="0.678356" stroke-miterlimit="10" stroke-linecap="round" stroke-linejoin="round"/>
<path d="M133.963 205.143C136.288 212.925 138.612 220.707 140.938 228.49" stroke="#060305" stroke-width="0.678356" stroke-miterlimit="10" stroke-linecap="round" stroke-linejoin="round"/>
<path d="M224.264 198.039C232.109 195.008 239.955 191.978 247.802 188.947" stroke="#060305" stroke-width="0.678356" stroke-miterlimit="10" stroke-linecap="round" stroke-linejoin="round"/>
<path d="M139.391 222.125C152.52 215.376 165.648 208.627 178.778 201.88" stroke="#060305" stroke-width="0.678356" stroke-miterlimit="10" stroke-linecap="round" stroke-linejoin="round"/>
<path d="M184.686 167.528C186.593 175.67 188.5 183.812 190.408 191.954" stroke="#060305" stroke-width="0.678356" stroke-miterlimit="10" stroke-linecap="round" stroke-linejoin="round"/>
<path d="M210.975 524.086C205.763 519.598 202.063 513.323 200.623 506.529C199.184 499.734 199.932 492.62 202.862 486.343C173.762 479.489 143.436 476.012 113.569 476.076C109.342 488.828 105.114 501.582 100.887 514.334C111.564 520.205 121.791 526.872 132.469 532.743L217.88 533.277C217.597 529.281 213.979 526.671 210.975 524.086Z" fill="#2A2A59"/>
<path d="M144.653 497.477C144.383 509.133 144.112 520.788 143.842 532.445" stroke="#060305" stroke-width="0.678356" stroke-miterlimit="10" stroke-linecap="round" stroke-linejoin="round"/>
<path d="M105.041 508.424C116.222 515.788 127.402 523.152 138.583 530.515" stroke="#060305" stroke-width="0.678356" stroke-miterlimit="10" stroke-linecap="round" stroke-linejoin="round"/>
<path d="M145.008 525.2C169.222 527.384 193.436 529.568 217.65 531.753" stroke="#060305" stroke-width="0.678356" stroke-miterlimit="10" stroke-linecap="round" stroke-linejoin="round"/>
<path d="M225.221 256.014L137.189 259.9C135.291 272.475 133.393 285.052 131.496 297.627C126.787 328.832 134.075 360.379 140.75 391.21C129.591 419.351 117.958 447.724 106.799 475.865C118.786 481.299 130.874 486.376 143.046 491.364C143.106 493.666 142.562 495.556 142.622 497.858C165.666 497.591 188.799 497.182 211.843 496.914C210.01 473.831 208.702 450.497 206.869 427.414C216.253 415.752 219.582 400.406 222.214 385.568C230.74 337.489 229.112 299.189 225.221 256.014Z" fill="#060305"/>
<path d="M136.609 268.06C154.286 267.663 171.964 267.265 189.641 266.869" stroke="white" stroke-width="0.678356" stroke-miterlimit="10" stroke-linecap="round" stroke-linejoin="round"/>
<path d="M148.386 268.009C145.002 285.456 143.605 303.3 144.231 321.072C145.053 344.343 149.792 367.059 152.504 390.181C153.644 389.374 155.591 390.187 156.298 391.405C157.004 392.622 156.782 394.242 156.003 395.412C155.224 396.581 153.977 397.354 152.678 397.852C152.312 430.883 151.039 463.825 150.674 496.856" stroke="white" stroke-width="0.678356" stroke-miterlimit="10" stroke-linecap="round" stroke-linejoin="round"/>
<path d="M143.141 491.633C142.455 458.4 141.767 425.168 141.08 391.936" stroke="white" stroke-width="0.678356" stroke-miterlimit="10" stroke-linecap="round" stroke-linejoin="round"/>
<path d="M194.955 312.841C198.115 339.91 201.276 366.978 204.437 394.047C205.757 405.353 206.267 416.785 207 428.147" stroke="white" stroke-width="0.678356" stroke-miterlimit="10" stroke-linecap="round" stroke-linejoin="round"/>
<path d="M173.801 267.382C173.882 272.497 173.965 277.612 174.047 282.727" stroke="white" stroke-width="0.678356" stroke-miterlimit="10" stroke-linecap="round" stroke-linejoin="round"/>
<path d="M144.82 302.29C151.733 290.724 158.645 279.159 165.557 267.593" stroke="white" stroke-width="0.678356" stroke-miterlimit="10" stroke-linecap="round" stroke-linejoin="round"/>
<path d="M275.235 286.694C272.269 279.124 267.638 272.167 262.255 266.136C255.877 258.989 247.701 253.047 239.035 249.126C222.805 241.782 206.777 234.597 190.547 227.254C186.973 221.155 183.398 215.056 179.824 208.958L143.953 227.208C150.035 237.298 156.519 247.245 164.696 255.66C172.872 264.075 182.631 271.496 194.011 273.913C204.736 276.191 225.44 283.885 225.44 283.885C225.44 283.885 239.431 302 249.438 305.076C251.401 305.679 254.034 304.473 254.436 302.426C255.981 303.16 257.897 303.012 259.315 302.048C260.732 301.085 261.986 299.551 261.913 297.817C263.563 298.206 265.378 297.793 266.709 296.727C268.041 295.661 269.068 294.125 269.087 292.4C270.662 293.091 272.634 292.716 273.857 291.489C275.08 290.264 275.871 288.318 275.235 286.694Z" fill="#FFD1C7"/>
<path d="M190.544 227.624C189.338 227.767 188.132 227.91 186.926 228.052" stroke="#060305" stroke-width="0.678356" stroke-miterlimit="10" stroke-linecap="round" stroke-linejoin="round"/>
<path d="M266.742 289.019C267.437 289.997 268.131 290.973 268.826 291.951" stroke="#060305" stroke-width="0.678356" stroke-miterlimit="10" stroke-linecap="round" stroke-linejoin="round"/>
<path d="M259.381 294.677C260.404 295.733 261.427 296.788 262.45 297.843" stroke="#060305" stroke-width="0.678356" stroke-miterlimit="10" stroke-linecap="round" stroke-linejoin="round"/>
<path d="M251.992 300.206C252.694 300.872 253.396 301.537 254.099 302.203" stroke="#060305" stroke-width="0.678356" stroke-miterlimit="10" stroke-linecap="round" stroke-linejoin="round"/>
<path d="M190.735 159.173C190.813 158.253 190.981 157.494 191.059 156.574C193.534 155.947 195.796 154.481 197.404 152.463C199.011 150.446 200.315 147.89 200.195 145.296C200.015 141.403 199.196 137.635 197.693 134.049C196.971 132.324 195.696 130.846 194.11 129.895C192.525 128.943 190.881 128.307 189.049 128.498C189.532 129.398 188.999 130.574 188.174 131.161C187.349 131.748 186.316 131.916 185.335 132.145C184.353 132.374 183.324 132.725 182.712 133.539C182.183 134.243 182.059 135.169 181.946 136.048C181.834 136.927 181.694 137.854 181.143 138.541C180.593 139.229 179.183 139.867 178.543 139.265C178.149 140.107 177.755 140.948 177.36 141.789C176.785 140.68 176.05 139.561 175.473 138.452C173.064 138.069 170.486 139.148 169.038 141.147C167.591 143.145 167.34 145.974 168.412 148.203C169.483 150.434 171.83 151.967 174.268 152.029C173.807 153.893 173.356 155.774 172.894 157.637C172.467 159.365 173.472 161.427 174.696 162.7C175.919 163.974 177.552 164.784 179.247 165.23C181.618 165.855 184.203 165.786 186.448 164.788C188.692 163.789 190.524 161.659 190.735 159.173Z" fill="#FFD1C7"/>
<path d="M186.759 141.966C186.759 141.389 186.301 140.923 185.735 140.923C185.169 140.923 184.711 141.389 184.711 141.966C184.711 142.542 185.169 143.009 185.735 143.009C186.3 143.009 186.759 142.542 186.759 141.966Z" fill="#060305"/>
<path d="M198.593 140.661C198.593 140.085 198.135 139.618 197.569 139.618C197.003 139.618 196.545 140.085 196.545 140.661C196.545 141.238 197.003 141.704 197.569 141.704C198.135 141.704 198.593 141.238 198.593 140.661Z" fill="#060305"/>
<path d="M171.408 142.141C172.398 142.776 173.387 143.41 174.376 144.046" stroke="#060305" stroke-width="0.678356" stroke-miterlimit="10" stroke-linecap="round" stroke-linejoin="round"/>
<path d="M183.84 137.667C184.158 136.798 184.971 136.138 185.874 136.017C186.776 135.894 187.73 136.314 188.261 137.068" stroke="#060305" stroke-width="0.678356" stroke-miterlimit="10" stroke-linecap="round" stroke-linejoin="round"/>
<path d="M194.891 134.173C195.645 133.988 196.4 133.804 197.154 133.619" stroke="#060305" stroke-width="0.678356" stroke-miterlimit="10" stroke-linecap="round" stroke-linejoin="round"/>
<path d="M192.705 140.557C193.111 141.634 193.516 142.711 193.922 143.789C193.47 143.866 192.64 143.914 192.188 143.99" stroke="#060305" stroke-width="0.678356" stroke-miterlimit="10" stroke-linecap="round" stroke-linejoin="round"/>
<path d="M187.883 145.253C187.772 145.965 188.197 146.729 188.855 146.997C189.513 147.266 190.339 147.014 190.742 146.42" stroke="#060305" stroke-width="0.678356" stroke-miterlimit="10" stroke-linecap="round" stroke-linejoin="round"/>
<path d="M182.105 156.014C185.036 157.464 188.49 157.783 191.63 156.896" stroke="#060305" stroke-width="0.678356" stroke-miterlimit="10" stroke-linecap="round" stroke-linejoin="round"/>
<path d="M173.777 152.176C174.38 152.138 174.983 152.098 175.584 152.059" stroke="#060305" stroke-width="0.678356" stroke-miterlimit="10" stroke-linecap="round" stroke-linejoin="round"/>
<path d="M189.264 128.331C189.793 129.412 189.641 130.804 188.89 131.741C188.116 132.707 186.871 133.117 185.699 133.478" stroke="#16181D" stroke-width="0.678356" stroke-miterlimit="10" stroke-linecap="round" stroke-linejoin="round"/>
<path d="M242.122 302.288C243.398 299.092 244.675 295.894 245.95 292.698C246.257 291.928 246.569 291.13 246.543 290.299C246.516 289.469 245.912 288.551 245.128 288.321C243.378 289.864 241.603 291.382 239.853 292.926C240.831 289.846 241.808 286.766 242.786 283.688C243.059 282.832 243.333 281.931 243.172 281.047C243.011 280.162 242.239 279.333 241.361 279.424C238.964 282.119 236.38 284.714 233.983 287.409C234.585 284.537 235.187 281.666 235.789 278.794C236.023 277.672 236.258 276.5 235.965 275.394C235.673 274.287 234.656 273.476 233.537 273.602C231.816 275.999 230.096 278.395 228.376 280.791C228.592 278.387 228.809 275.984 229.026 273.581C229.113 272.609 229.195 271.592 228.823 270.693C228.452 269.795 227.371 269.287 226.454 269.574C224.183 274.247 221.913 278.919 219.643 283.592C219.753 284.89 220.342 286.037 221.344 286.85C222.346 287.662 223.68 288.034 224.948 287.853C224.968 289.411 226.008 290.755 227.303 291.585C228.598 292.413 230.295 292.54 231.704 291.934C231.466 293.493 232.07 294.998 233.241 296.033C234.412 297.067 236.114 297.435 237.597 296.976C237.02 298.282 237.411 299.861 238.31 300.962C239.208 302.065 240.756 302.628 242.122 302.288Z" fill="#FF9A7D"/>
<path d="M224.711 287.706C225.832 285.338 226.952 282.968 228.073 280.6" stroke="#060305" stroke-width="0.678356" stroke-miterlimit="10" stroke-linecap="round" stroke-linejoin="round"/>
<path d="M231.379 291.948C232.282 290.209 233.187 288.471 234.09 286.733" stroke="#060305" stroke-width="0.678356" stroke-miterlimit="10" stroke-linecap="round" stroke-linejoin="round"/>
<path d="M236.93 297.305C237.946 295.78 238.96 294.253 239.976 292.727" stroke="#060305" stroke-width="0.678356" stroke-miterlimit="10" stroke-linecap="round" stroke-linejoin="round"/>
<path d="M243.549 246.331C241.902 252.06 240.256 257.789 238.607 263.519C239.047 264.206 240.408 264.193 241.16 263.899C241.911 263.605 242.486 262.986 243.034 262.385C245.932 259.214 248.83 256.044 251.727 252.874L243.549 246.331Z" fill="#FF9A7D"/>
<path d="M249.725 255.119C250.177 254.608 250.628 254.097 251.08 253.586" stroke="#060305" stroke-width="0.678356" stroke-miterlimit="10" stroke-linecap="round" stroke-linejoin="round"/>
<path d="M113.986 197.613C113.986 196.893 113.413 196.309 112.706 196.309C111.999 196.309 111.426 196.893 111.426 197.613C111.426 198.332 111.999 198.916 112.706 198.916C113.413 198.916 113.986 198.332 113.986 197.613Z" fill="white"/>
<path d="M473.881 129.201C474.588 129.201 475.161 128.618 475.161 127.898C475.161 127.178 474.588 126.594 473.881 126.594C473.175 126.594 472.602 127.178 472.602 127.898C472.602 128.618 473.175 129.201 473.881 129.201Z" fill="white"/>
<path d="M507.165 267.496C507.872 267.496 508.445 266.912 508.445 266.192C508.445 265.472 507.872 264.889 507.165 264.889C506.458 264.889 505.885 265.472 505.885 266.192C505.885 266.912 506.458 267.496 507.165 267.496Z" fill="white"/>
<path d="M522.86 227.692C523.567 227.692 524.14 227.108 524.14 226.388C524.14 225.669 523.567 225.085 522.86 225.085C522.153 225.085 521.58 225.669 521.58 226.388C521.58 227.108 522.153 227.692 522.86 227.692Z" fill="#814EFF"/>
<path d="M543.202 181.871C543.202 181.151 542.629 180.568 541.922 180.568C541.216 180.568 540.643 181.151 540.643 181.871C540.643 182.591 541.216 183.175 541.922 183.175C542.629 183.176 543.202 182.592 543.202 181.871Z" fill="#814EFF"/>
<path d="M125.157 127.898C125.864 127.898 126.437 127.314 126.437 126.594C126.437 125.875 125.864 125.291 125.157 125.291C124.45 125.291 123.877 125.875 123.877 126.594C123.877 127.314 124.45 127.898 125.157 127.898Z" fill="white"/>
<path d="M449.436 118.488C450.143 118.488 450.716 117.904 450.716 117.185C450.716 116.465 450.143 115.881 449.436 115.881C448.729 115.881 448.156 116.465 448.156 117.185C448.156 117.904 448.729 118.488 449.436 118.488Z" fill="white"/>
<path d="M133.659 136.221C134.366 136.221 134.939 135.638 134.939 134.918C134.939 134.198 134.366 133.615 133.659 133.615C132.952 133.615 132.379 134.198 132.379 134.918C132.379 135.638 132.952 136.221 133.659 136.221Z" fill="#814EFF"/>
<path d="M73.6139 260.574C74.3208 260.574 74.8938 259.991 74.8938 259.271C74.8938 258.551 74.3208 257.968 73.6139 257.968C72.907 257.968 72.334 258.551 72.334 259.271C72.334 259.991 72.907 260.574 73.6139 260.574Z" fill="white"/>
<path d="M35.2682 291.07C35.9751 291.07 36.5481 290.486 36.5481 289.766C36.5481 289.046 35.9751 288.463 35.2682 288.463C34.5613 288.463 33.9883 289.046 33.9883 289.766C33.9883 290.486 34.5613 291.07 35.2682 291.07Z" fill="#814EFF"/>
<path d="M72.3344 214.22H66.5742V220.086H72.3344V214.22Z" stroke="#060305" stroke-width="0.678356" stroke-miterlimit="10" stroke-linecap="round" stroke-linejoin="round"/>
<path d="M537.678 155.852H531.918V161.718H537.678V155.852Z" fill="white"/>
<path d="M530.426 309.812H524.666V315.679H530.426V309.812Z" stroke="#060305" stroke-width="0.678356" stroke-miterlimit="10" stroke-linecap="round" stroke-linejoin="round"/>
<path d="M183.504 62.4363H177.744V68.3024H183.504V62.4363Z" fill="#814EFF"/>
<path d="M114.305 341.934H108.545V347.8H114.305V341.934Z" fill="white"/>
<path d="M110.125 274.361L105.516 279.055" stroke="#060305" stroke-width="0.678356" stroke-miterlimit="10" stroke-linecap="round" stroke-linejoin="round"/>
<path d="M159.99 70.9731L155.381 75.6672" stroke="#060305" stroke-width="0.678356" stroke-miterlimit="10" stroke-linecap="round" stroke-linejoin="round"/>
<path d="M545.477 294.485L540.867 299.179" stroke="#060305" stroke-width="0.678356" stroke-miterlimit="10" stroke-linecap="round" stroke-linejoin="round"/>
<path d="M544.723 132.275L540.113 136.969" stroke="#060305" stroke-width="0.678356" stroke-miterlimit="10" stroke-linecap="round" stroke-linejoin="round"/>
<path d="M501.682 204.818L506.291 209.512" stroke="#060305" stroke-width="0.678356" stroke-miterlimit="10" stroke-linecap="round" stroke-linejoin="round"/>
<path d="M46.0645 127.569L50.6738 132.263" stroke="#060305" stroke-width="0.678356" stroke-miterlimit="10" stroke-linecap="round" stroke-linejoin="round"/>
<path d="M454.391 79.3315L459 84.0256" stroke="#060305" stroke-width="0.678356" stroke-miterlimit="10" stroke-linecap="round" stroke-linejoin="round"/>
</g>
<defs>
<clipPath id="clip0_238_437">
<rect width="592" height="602.889" fill="white"/>
</clipPath>
</defs>
</svg>
